Coordinates
version=1
nRows=29
nColumns=24
inDegrees=yes

Units are S.I. units (second, meters, Newtons, ...)
Angles are in degrees.

endheader
time	pelvis_tilt	pelvis_list	pelvis_rotation	pelvis_tx	pelvis_ty	pelvis_tz	hip_flexion_r	hip_adduction_r	hip_rotation_r	knee_angle_r	ankle_angle_r	subtalar_angle_r	mtp_angle_r	hip_flexion_l	hip_adduction_l	hip_rotation_l	knee_angle_l	ankle_angle_l	subtalar_angle_l	mtp_angle_l	lumbar_extension	lumbar_bending	lumbar_rotation
      1.91000000	     -3.63964244	      3.09018382	      0.61536546	      0.07095874	      0.94111277	      0.01688739	      1.25901976	      1.77572999	     10.78574928	    -22.83365826	     25.79295366	      0.00000000	      0.00000000	     22.78178750	      1.19735138	     -4.83452972	      6.13840756	      2.76649597	      0.00000000	      0.00000000	     -6.70607924	      0.11927635	      5.95210162
      1.92000000	     -3.63087979	      3.14001466	      0.12712784	      0.07143112	      0.94004169	      0.01648911	      0.78548986	      1.66441278	     11.09502141	    -22.92416863	     25.81633891	      0.00000000	      0.00000000	     22.84692939	      1.23836441	     -4.48774277	      5.62042454	      2.69691099	      0.00000000	      0.00000000	     -6.65996883	     -0.06489507	      6.16430749
      1.93000000	     -3.62177150	      3.19103394	     -0.38579239	      0.07213702	      0.93902491	      0.01599610	      0.30051967	      1.52767518	     11.37816411	    -23.01084134	     25.82702164	      0.00000000	      0.00000000	     22.89537346	      1.28149046	     -4.15785308	      4.96194741	      2.57712478	      0.00000000	      0.00000000	     -6.58485857	     -0.24224087	      6.44834396
      1.94000000	     -3.50533996	      3.28231995	     -0.95534030	      0.07297499	      0.93820862	      0.01558102	     -0.30076596	      1.36000757	     11.92333640	    -23.11773844	     25.82382416	      0.00000000	      0.00000000	     22.91926439	      1.36300441	     -4.06416788	      3.97748338	      2.71646869	      0.00000000	      0.00000000	     -6.62849562	     -0.48117191	      6.72197782
      1.95000000	     -3.50897226	      3.33821287	     -1.45531094	      0.07406687	      0.93731206	      0.01491533	     -0.79304102	      1.18232043	     12.19683845	    -23.19066032	     25.73857866	      0.00000000	      0.00000000	     22.96546601	      1.43620997	     -3.76410430	      3.12096088	      2.36930698	      0.00000000	      0.00000000	     -6.48705335	     -0.66383818	      7.01613804
      1.96000000	     -3.50059901	      3.41160342	     -1.97656956	      0.07531173	      0.93653574	      0.01417522	     -1.30385683	      0.96207789	     12.49073792	    -23.25054963	     25.58798121	      0.00000000	      0.00000000	     23.03505012	      1.52565795	     -3.55215388	      2.13352086	      1.93126652	      0.00000000	      0.00000000	     -6.34556397	     -0.85779062	      7.28600560
      1.97000000	     -3.48014921	      3.51540403	     -2.49128711	      0.07672331	      0.93587426	      0.01348534	     -1.82547560	      0.70944093	     12.85227577	    -23.31900898	     25.23523877	      0.00000000	      0.00000000	     23.14462966	      1.66091077	     -3.69105715	      1.01578931	      1.44427927	      0.00000000	      0.00000000	     -6.19882759	     -1.09933351	      7.52314544
      1.98000000	     -3.49500066	      3.60254546	     -2.97880247	      0.07830658	      0.93529425	      0.01256947	     -2.32035137	      0.43288073	     13.07536806	    -23.36498675	     24.95759614	      0.00000000	      0.00000000	     23.23034254	      1.76849667	     -3.51182699	     -0.00680810	      0.78577927	      0.00000000	      0.00000000	     -5.98418703	     -1.29456244	      7.73931773
      1.99000000	     -3.51888892	      3.71181416	     -3.39471458	      0.08002244	      0.93485491	      0.01160077	     -2.82074987	      0.12298398	     13.22964758	    -23.38834113	     24.49676660	      0.00000000	      0.00000000	     23.36955828	      1.91541991	     -3.47955626	     -1.10062422	      0.03211939	      0.00000000	      0.00000000	     -5.74814605	     -1.52651901	      7.94130090
      2.00000000	     -3.54613353	      3.83715066	     -3.80766689	      0.08184718	      0.93459675	      0.01055225	     -3.30882366	     -0.22508738	     13.33799303	    -23.39676514	     23.97726996	      0.00000000	      0.00000000	     23.51084622	      2.06768906	     -3.39014068	     -2.21207953	     -0.70952508	      0.00000000	      0.00000000	     -5.50121588	     -1.76375514	      8.12240728
      2.01000000	     -3.57145071	      3.96757318	     -4.16958718	      0.08383123	      0.93449310	      0.00944859	     -3.80131777	     -0.59057818	     13.37167555	    -23.41245461	     23.39785151	      0.00000000	      0.00000000	     23.64440819	      2.22330250	     -3.26742716	     -3.31720428	     -1.38273258	      0.00000000	      0.00000000	     -5.21954583	     -2.01320865	      8.33398611
      2.02000000	     -3.62003010	      4.15697148	     -4.36584082	      0.08580171	      0.93456877	      0.00829535	     -4.27295067	     -1.00114468	     13.31827541	    -23.40928713	     22.39654442	      0.00000000	      0.00000000	     23.90120317	      2.47481311	     -3.26059675	     -4.60266856	     -2.01081214	      0.00000000	      0.00000000	     -4.92478247	     -2.35021923	      8.29732149
      2.03000000	     -3.70243377	      4.31993444	     -4.52697875	      0.08788921	      0.93481184	      0.00681972	     -4.70220249	     -1.43033356	     13.10012186	    -23.39059421	     21.27103724	      0.00000000	      0.00000000	     24.19640964	      2.72280714	     -3.02177205	     -5.94564294	     -2.34694173	      0.00000000	      0.00000000	     -4.58319700	     -2.60481038	      8.31660220
      2.04000000	     -3.72129702	      4.50093889	     -4.76850067	      0.08995940	      0.93531185	      0.00550780	     -5.14015657	     -1.86602698	     13.06686467	    -23.45199066	     20.40608804	      0.00000000	      0.00000000	     24.35029678	      2.94641613	     -2.64198904	     -7.17369940	     -2.64162456	      0.00000000	      0.00000000	     -4.30128144	     -2.90075228	      8.51024613
      2.05000000	     -3.84487783	      4.59991829	     -4.62230792	      0.09214252	      0.93585781	      0.00378087	     -5.51802717	     -2.20020854	     12.54138847	    -23.44479228	     18.71343918	      0.00000000	      0.00000000	     24.79446069	      3.24172488	     -2.22903864	     -8.82597304	     -2.17275779	      0.00000000	      0.00000000	     -3.91278758	     -3.08978277	      8.27728377
      2.06000000	     -3.97211271	      4.61374625	     -4.54522578	      0.09433433	      0.93653436	      0.00206130	     -5.84803642	     -2.43460105	     12.28534998	    -23.51565482	     17.26530115	      0.00000000	      0.00000000	     25.19926052	      3.44208892	     -1.55770521	    -10.47312804	     -1.61132346	      0.00000000	      0.00000000	     -3.51081220	     -3.16830208	      8.22648148
      2.07000000	     -3.99977390	      4.77267283	     -4.54318977	      0.09648604	      0.93755481	      0.00043042	     -6.13105644	     -2.82905132	     12.04790621	    -23.78948058	     15.66839290	      0.00000000	      0.00000000	     25.32116031	      3.77958154	     -1.19361416	    -11.77777242	     -1.14150072	      0.00000000	      0.00000000	     -3.21350317	     -3.42406122	      8.26060950
      2.08000000	     -3.97156390	      4.96888319	     -4.62691938	      0.09856994	      0.93878127	     -0.00111653	     -6.36605183	     -3.25149095	     12.08643689	    -24.21969301	     14.21522654	      0.00000000	      0.00000000	     25.25850388	      4.14908248	     -0.63497578	    -12.87283567	     -0.82203116	      0.00000000	      0.00000000	     -2.98023385	     -3.73095980	      8.46060627
      2.09000000	     -4.02042559	      5.00100716	     -4.49278954	      0.10087621	      0.94003491	     -0.00298251	     -6.54054424	     -3.52832875	     11.62668017	    -24.56323392	     11.96293974	      0.00000000	      0.00000000	     25.23330010	      4.44487093	     -0.35218274	    -13.97474508	      0.28917525	      0.00000000	      0.00000000	     -2.63548460	     -3.81180826	      8.42460296
      2.10000000	     -3.96520841	      5.09705702	     -4.49090021	      0.10290043	      0.94149700	     -0.00460934	     -6.59721578	     -3.80148788	     11.72604189	    -25.31035820	     10.24702293	      0.00000000	      0.00000000	     24.95677586	      4.77292035	      0.12380426	    -14.77684836	      0.85100979	      0.00000000	      0.00000000	     -2.44014037	     -3.99115228	      8.54568048
      2.11000000	     -4.02632917	      5.00064015	     -4.41279073	      0.10515745	      0.94295443	     -0.00635642	     -6.62810559	     -3.92927060	     11.47472990	    -25.75795337	      7.68614939	      0.00000000	      0.00000000	     24.72092522	      4.91944660	      0.21704538	    -15.52235499	      2.05201473	      0.00000000	      0.00000000	     -2.07733221	     -3.91996435	      8.66503443
      2.12000000	     -3.97955936	      4.98850525	     -4.45423777	      0.10708985	      0.94453185	     -0.00796400	     -6.45542922	     -4.10479865	     11.48778139	    -26.73698909	      5.42144652	      0.00000000	      0.00000000	     24.24675706	      5.11033020	      0.27661457	    -15.96547417	      2.86281008	      0.00000000	      0.00000000	     -1.87022461	     -3.94513006	      8.84424690
      2.13000000	     -3.93503349	      4.96463975	     -4.55629570	      0.10894978	      0.94612720	     -0.00944197	     -6.16450493	     -4.25895393	     11.58700018	    -27.84098050	      3.01235938	      0.00000000	      0.00000000	     23.66815148	      5.25236463	      0.16619363	    -16.20334195	      3.64669186	      0.00000000	      0.00000000	     -1.66250885	     -3.95577395	      9.05883026
      2.14000000	     -3.87958880	      4.92802085	     -4.70092558	      0.11060731	      0.94770208	     -0.01077207	     -5.73117322	     -4.37167969	     11.74742120	    -29.14789841	      0.55559590	      0.00000000	      0.00000000	     23.00729395	      5.34629765	     -0.09029242	    -16.27625796	      4.36415755	      0.00000000	      0.00000000	     -1.48611334	     -3.95525112	      9.27965224
      2.15000000	     -3.81727085	      4.87557992	     -4.91456300	      0.11202453	      0.94921365	     -0.01198028	     -5.13626137	     -4.45808416	     11.91265862	    -30.66563213	     -1.90856634	      0.00000000	      0.00000000	     22.28990565	      5.38897925	     -0.44951607	    -16.22152795	      5.01201976	      0.00000000	      0.00000000	     -1.34314054	     -3.93028098	      9.53042634
      2.16000000	     -3.75909870	      4.83050810	     -5.15254216	      0.11324134	      0.95062409	     -0.01310820	     -4.39769694	     -4.53240849	     12.08189999	    -32.36043447	     -4.31100137	      0.00000000	      0.00000000	     21.54994686	      5.42271661	     -0.88399646	    -16.09007566	      5.60385887	      0.00000000	      0.00000000	     -1.22317580	     -3.91149089	      9.75403106
      2.17000000	     -3.69192176	      4.78767912	     -5.41508339	      0.11416883	      0.95191760	     -0.01399035	     -3.52183979	     -4.58031720	     12.19594532	    -34.24058722	     -6.57034321	      0.00000000	      0.00000000	     20.79993591	      5.43382126	     -1.31657009	    -15.91470407	      6.15046514	      0.00000000	      0.00000000	     -1.14202379	     -3.92104374	      9.94659188
      2.18000000	     -3.65627830	      4.76947212	     -5.71188919	      0.11485072	      0.95304072	     -0.01474454	     -2.49943334	     -4.64224900	     12.28324643	    -36.22755179	     -8.65799064	      0.00000000	      0.00000000	     20.08705236	      5.44745579	     -1.80500490	    -15.70987904	      6.65100823	      0.00000000	      0.00000000	     -1.05121123	     -3.95765022	     10.08985441
      2.19000000	     -3.63553344	      4.77371423	     -6.01699047	      0.11521193	      0.95398361	     -0.01542345	     -1.32968878	     -4.72298719	     12.27847291	    -38.34967494	    -10.42016670	      0.00000000	      0.00000000	     19.41292106	      5.48362188	     -2.25061112	    -15.49842735	      7.11215415	      0.00000000	      0.00000000	     -0.98212039	     -4.01641316	     10.18005341
